<svg width="400" height="120" viewBox="0 0 400 120" fill="none" xmlns="http://www.w3.org/2000/svg">
  <!-- S/8 Infinity Symbol -->
  <g transform="translate(20, 10)">
    <!-- Vertical infinity/8 outline -->
    <path
      d="M 50 20 C 50 20, 30 20, 30 35 C 30 50, 50 50, 50 50 C 50 50, 30 50, 30 65 C 30 80, 50 80, 50 80 C 50 80, 70 80, 70 65 C 70 50, 50 50, 50 50 C 50 50, 70 50, 70 35 C 70 20, 50 20, 50 20 Z"
      stroke="white"
      stroke-width="6"
      fill="none"
      stroke-linecap="round"
      stroke-linejoin="round"
    />
    <!-- Single white dot inside lower-left loop -->
    <circle cx="32" cy="74" r="5" fill="white" />
  </g>
  
  <!-- Sarathi Studio Text -->
  <text x="120" y="50" fill="white" fontSize="36" fontWeight="700" fontFamily="system-ui, -apple-system, sans-serif" letterSpacing="-0.02em">
    Sarathi
  </text>
  <text x="120" y="85" fill="white" fontSize="36" fontWeight="700" fontFamily="system-ui, -apple-system, sans-serif" letterSpacing="-0.02em">
    Studio
  </text>
</svg>
